<svg xmlns="http://www.w3.org/2000/svg" version="1.1" xmlns:xlink="http://www.w3.org/1999/xlink" viewBox="0 0 200 200"><rect width="200" height="200" fill="url('#gradient')"></rect><defs><linearGradient id="gradient" gradientTransform="rotate(231 0.5 0.5)"><stop offset="0%" stop-color="#472027"></stop><stop offset="100%" stop-color="#192025"></stop></linearGradient></defs><g><g fill="#f3bd7d" transform="matrix(6.874280732345248,0,0,6.874280732345248,15.617813525515842,148.8755117912758)" stroke="#c06a3e" stroke-width="0.2"><path d="M10.03-8.30L10.03-5.66L4.50-5.66L4.50 0L1.07 0L1.07-14.22L10.59-14.22L10.59-11.57L4.50-11.57L4.50-8.30L10.03-8.30ZM19.80 0L17.29-5.02L15.44-5.02L15.44 0L12.01 0L12.01-14.22L17.61-14.22Q20.14-14.22 21.56-13.10Q22.99-11.97 22.99-9.92L22.99-9.92Q22.99-8.44 22.39-7.46Q21.79-6.48 20.51-5.88L20.51-5.88L23.48-0.15L23.48 0L19.80 0ZM15.44-11.57L15.44-7.67L17.61-7.67Q18.58-7.67 19.08-8.18Q19.57-8.69 19.57-9.61Q19.57-10.53 19.07-11.05Q18.57-11.57 17.61-11.57L17.61-11.57L15.44-11.57Z"></path></g></g></svg>